# xmcd
#
# Track frame offsets: 
#        150
#        19912
#        42115
#        58455
#        73280
#        91392
#        104747
#        126177
#        158957
#        175147
#        197685
#
# Disc length: 2965 seconds
#
# Revision: 2
# Processed by: cddbd v1.5.1PL0 Copyright (c) Steve Scherf et al.
# Submitted via: ExactAudioCopy v0.95a5
#
DISCID=a30b930b
DTITLE=Doctor Ross - Blues And Boogie From Detroit
DYEAR=1972
DGENRE=Blues
TTITLE0=Chicago Breakdown
TTITLE1=30:20 Blues
TTITLE2=Got Somethin' To Tell
TTITLE3=Mama Blues
TTITLE4=Hobo Blues
TTITLE5=Boogie Disease No. 3
TTITLE6=Trouble, Trouble
TTITLE7=Sweet Black Angel
TTITLE8=China Blues
TTITLE9=Little Schoolgirl
TTITLE10=Biscuit Bakin' Woman
EXTD=
EXTT0=(I. Ross)
EXTT1=(I. Ross)
EXTT2=(I. Ross)
EXTT3=(I. Ross)
EXTT4=(John Lee Hooker)
EXTT5=(I. Ross)
EXTT6=(I. Ross)
EXTT7=(I. Ross)
EXTT8=(I. Ross)
EXTT9=(John Lee Williamson)
EXTT10=(I. Ross)
PLAYORDER=
